<svg xmlns="http://www.w3.org/2000/svg" width="352" height="84" viewBox="-176 -44 352 84">
  <!-- The tumbling satellite: same shape as satellite.svg, but white, battered and marked with hazard stripes.
       User-space (0,0) is the centre of the body, which it tumbles around. Landing top edge is y = -28. -->
  <defs>
    <clipPath id="body"><rect x="-40" y="-28" width="80" height="56" rx="5"/></clipPath>
    <clipPath id="panel"><rect x="60" y="-28" width="110" height="44" rx="4"/></clipPath>
    <clipPath id="dish"><path d="M-14,-37 Q0,-23 14,-37 Z"/></clipPath>
    <clipPath id="bell"><path d="M-10,26 L10,26 L15,37 L-15,37 Z"/></clipPath>
  </defs>
  <!-- Struts with hinge blocks -->
  <rect x="34" y="-9" width="28" height="6" fill="#8e9aa8"/>
  <rect x="34" y="-5" width="28" height="2" fill="#6f7b89"/>
  <rect x="52" y="-13" width="8" height="14" rx="2" fill="#7b8796"/>
  <rect x="-62" y="-9" width="28" height="6" fill="#8e9aa8"/>
  <rect x="-62" y="-5" width="28" height="2" fill="#6f7b89"/>
  <rect x="-60" y="-13" width="8" height="14" rx="2" fill="#7b8796"/>
  <!-- Right solar panel: cracked, with dead cells, and drooping on its hinge -->
  <g transform="rotate(6 56 -6)">
    <rect x="60" y="-28" width="110" height="44" rx="4" fill="#2a5aa8"/>
    <g clip-path="url(#panel)">
      <rect x="60" y="-28" width="110" height="3" fill="#4f7fd1"/>
      <rect x="104.9" y="0.2" width="20.2" height="11.3" fill="#0f1d3d" opacity="0.6"/>
      <rect x="125.1" y="-11.2" width="20.2" height="11.4" fill="#0f1d3d" opacity="0.6"/>
      <rect x="125.1" y="-22.5" width="20.2" height="11.3" fill="#0f1d3d" opacity="0.35"/>
      <g stroke="#4f7fd1" stroke-width="1.5" fill="none">
        <rect x="64.5" y="-22.5" width="101" height="34" rx="1"/>
        <path d="M84.7,-22.5 V11.5 M104.9,-22.5 V11.5 M125.1,-22.5 V11.5 M145.3,-22.5 V11.5"/>
        <path d="M64.5,-11.2 H165.5 M64.5,0.2 H165.5"/>
      </g>
      <g stroke="#101a33" stroke-width="3" fill="none" stroke-linecap="round" stroke-linejoin="round">
        <path d="M120,-28 L113,-15 L125,-6 L115,5 L122,16"/>
        <path d="M125,-6 L140,-10 L150,-2"/>
        <path d="M115,5 L101,8"/>
      </g>
      <rect x="56" y="10" width="118" height="8" fill="#000" opacity="0.15"/>
    </g>
  </g>
  <!-- Left solar panel (mirror of an undamaged right one) -->
  <g transform="scale(-1,1)">
    <rect x="60" y="-28" width="110" height="44" rx="4" fill="#2a5aa8"/>
    <g clip-path="url(#panel)">
      <rect x="60" y="-28" width="110" height="3" fill="#4f7fd1"/>
      <g stroke="#4f7fd1" stroke-width="1.5" fill="none">
        <rect x="64.5" y="-22.5" width="101" height="34" rx="1"/>
        <path d="M84.7,-22.5 V11.5 M104.9,-22.5 V11.5 M125.1,-22.5 V11.5 M145.3,-22.5 V11.5"/>
        <path d="M64.5,-11.2 H165.5 M64.5,0.2 H165.5"/>
      </g>
      <path d="M128,-25 L140,-25 L128,-1 L116,-1 Z" fill="#fff" opacity="0.22"/>
      <path d="M144,-25 L149,-25 L137,-1 L132,-1 Z" fill="#fff" opacity="0.16"/>
      <rect x="56" y="10" width="118" height="8" fill="#000" opacity="0.15"/>
    </g>
  </g>
  <!-- Engine bell under the body -->
  <path d="M-10,26 L10,26 L15,37 L-15,37 Z" fill="#8e9aa8"/>
  <g clip-path="url(#bell)">
    <rect x="-16" y="33" width="32" height="5" fill="#000" opacity="0.15"/>
  </g>
  <!-- White body with dented facets and a hazard stripe along the bottom -->
  <rect x="-40" y="-28" width="80" height="56" rx="5" fill="#dfe5ea"/>
  <g clip-path="url(#body)">
    <path d="M-40,-4 L-17,6 L-24,17 L-40,17 Z" fill="#b9c2cc"/>
    <path d="M14,-24 L40,-24 L40,0 L27,-9 Z" fill="#b9c2cc"/>
    <path d="M-35,-20 L-9,-20 L-24,-7 Z" fill="#f6f9fb"/>
    <path d="M24,0 L37,8 L31,13 Z" fill="#f6f9fb"/>
    <rect x="-44" y="-28" width="88" height="5" fill="#f6f9fb"/>
    <rect x="-36" y="-19" width="4" height="30" rx="2" fill="#fff" opacity="0.5"/>
    <rect x="-44" y="17" width="88" height="12" fill="#f7c331"/>
    <path d="M-44,29 L-34,17 L-24,17 L-34,29 Z M-24,29 L-14,17 L-4,17 L-14,29 Z M-4,29 L6,17 L16,17 L6,29 Z M16,29 L26,17 L36,17 L26,29 Z M36,29 L46,17 L56,17 L46,29 Z" fill="#2d2f3a"/>
  </g>
  <!-- Camera lens -->
  <circle cx="0" cy="4" r="10" fill="#8e9aa8"/>
  <circle cx="0" cy="4" r="7" fill="#2d2f3a"/>
  <circle cx="2.5" cy="1.5" r="2.5" fill="#fff"/>
  <!-- Dish antenna on top, knocked crooked, with a red warning light -->
  <g transform="rotate(-20 0 -28)">
    <rect x="-2" y="-32" width="4" height="5" fill="#8e9aa8"/>
    <path d="M-14,-37 Q0,-23 14,-37 Z" fill="#f4f4f0"/>
    <g clip-path="url(#dish)">
      <rect x="-16" y="-33" width="32" height="6" fill="#000" opacity="0.12"/>
    </g>
    <path d="M-10,-36 Q-5,-32 -1,-31 L-1,-36 Z" fill="#fff" opacity="0.6"/>
    <path d="M0,-35 V-38" stroke="#8e9aa8" stroke-width="1.5" stroke-linecap="round"/>
    <circle cx="0" cy="-38.3" r="4.5" fill="#e74c3c" opacity="0.35"/>
    <circle cx="0" cy="-38.3" r="2.2" fill="#e74c3c"/>
  </g>
</svg>
