<svg xmlns="http://www.w3.org/2000/svg" width="32" height="32" viewBox="0 0 32 32">
  <defs>
    <clipPath id="heart"><path d="M16,8.4 C14.6,5.6 12.2,3.6 9,3.6 C4.8,3.6 1.6,6.9 1.6,11.6 C1.6,18.7 10.3,24.5 14.6,27.7 Q16,28.8 17.4,27.7 C21.7,24.5 30.4,18.7 30.4,11.6 C30.4,6.9 27.2,3.6 23,3.6 C19.8,3.6 17.4,5.6 16,8.4 Z"/></clipPath>
  </defs>
  <!-- Heart -->
  <path d="M16,8.4 C14.6,5.6 12.2,3.6 9,3.6 C4.8,3.6 1.6,6.9 1.6,11.6 C1.6,18.7 10.3,24.5 14.6,27.7 Q16,28.8 17.4,27.7 C21.7,24.5 30.4,18.7 30.4,11.6 C30.4,6.9 27.2,3.6 23,3.6 C19.8,3.6 17.4,5.6 16,8.4 Z" fill="#ff5c8a"/>
  <g clip-path="url(#heart)">
    <!-- Darker lower band -->
    <ellipse cx="16" cy="32.5" rx="21" ry="12" fill="#e0406e"/>
  </g>
  <!-- Highlight on upper-left lobe -->
  <ellipse cx="8.4" cy="9.4" rx="3.5" ry="2.3" transform="rotate(-35 8.4 9.4)" fill="#fff" opacity="0.6"/>
  <circle cx="12.6" cy="7.2" r="1.1" fill="#fff" opacity="0.6"/>
</svg>
